<svg viewBox="0 0 65 65" xmlns="http://www.w3.org/2000/svg"><path d="M65 19.5L57.5 7.7h-50L.3 19.1l-.3.4v.1c0 3.7 2.8 6.7 6.4 7.1v30.8h52.3V26.6c3.5-.4 6.3-3.4 6.3-7.1zm-2.2-.7H52l-3.7-9.6h8.3l6.2 9.6zm-23.3 0l-1.2-9.6h8.5l3.7 9.6h-11zm-1.5 0H27l1.2-9.6h8.5l1.3 9.6zm-12.5 0H14.6l3.7-9.6h8.5l-1.3 9.6zm-.2 1.5c-.4 2.7-2.7 4.8-5.5 4.8s-5.2-2.1-5.5-4.8h11zm12.7 0c-.4 2.7-2.7 4.8-5.5 4.8S27.3 23 27 20.3h11zm12.8 0c-.4 2.7-2.7 4.8-5.5 4.8s-5.2-2.1-5.5-4.8h11zM8.3 9.2h8.3L13 18.8H2.2l6.1-9.6zM1.5 20.3h11.1c-.4 2.7-2.7 4.8-5.5 4.8S1.9 23 1.5 20.3zm11.9 35.5V35h12.7v20.8H13.4zm14.2 0V33.5H11.9v22.3H7.8V26.6c2.5-.3 4.5-1.8 5.6-3.9 1.2 2.3 3.6 4 6.4 4s5.2-1.6 6.4-4c1.2 2.3 3.6 4 6.4 4s5.2-1.6 6.4-4c1.2 2.3 3.6 4 6.4 4s5.2-1.6 6.4-4c1.1 2.1 3.1 3.7 5.6 3.9v29.3H27.6zm30.3-30.7c-2.8 0-5.2-2.1-5.5-4.8h11.1c-.4 2.7-2.8 4.8-5.6 4.8z"></path><path d="M35.8 46.5h15.7V35.9H35.8v10.6zm1.4-9.1H50V45H37.2v-7.6zM23.3 45h1.5v1.5h-1.5z"></path></svg>