<svg xmlns="http://www.w3.org/2000/svg" width="602.4" height="602.4" viewBox="0 0 602.4 602.4"><path d="M235.4 75.3V18.1h19.1v57.2h93.4V0H367v75.3h82.9v201.1h152.5v326H0V189.7h151.6V75.3h83.8zm127.8 508.1h68.6v-490H170.6v490h67.7V454.7h124.9v128.7zm-18.1 0V473.7h-87.7v109.6h87.7zm239.2-287.9H450.9v287.9h133.5V295.5zM151.6 583.4V208.7H19.1v374.6h132.5zm404.1-27.7h-77.2v-58.1h77.2v58.1zm-431.8 0H46.7v-58.1h77.2v58.1zm412.8-39.1h-39.1v20h39.1v-20zM65.8 536.7h39.1v-20H65.8v20zM555.7 469h-77.2v-58.1h77.2V469zm-431.8 0H46.7v-58.1h77.2V469zm373.7-19.1h39.1v-20h-39.1v20zm-392.7-20H65.8v20h39.1v-20zm291.6-15.3h-78.2v-78.2h78.2v78.2zm-112.4 0h-78.2v-78.2h78.2v78.2zm-19.1-59h-40v40h40v-40zm72.4 40h40v-40h-40v40zm218.3-13.4h-77.2v-58.1h77.2v58.1zm-431.8 0H46.7v-58.1h77.2v58.1zm412.8-39h-39.1v20h39.1v-20zm-470.9 20h39.1v-20H65.8v20zm218.3-51.5h-78.2v-78.2h78.2v78.2zm112.4 0h-78.2v-78.2h78.2v78.2zm-272.6-16.2H46.7v-58.1h77.2v58.1zM265 252.6h-40v40h40v-40zm72.4 40h40v-40h-40v40zm-232.5-36.2H65.8v20h39.1v-20zm179.2-46.7h-78.2v-78.2h78.2v78.2zm112.4 0h-78.2v-78.2h78.2v78.2zM265 150.6h-40v40h40v-40zm72.4 40h40v-40h-40v40z"></path></svg>