<svg viewBox="0 0 65 65" xmlns="http://www.w3.org/2000/svg"><path d="M14.9 34c.5.4.8 1 .8 1.6h1.5c0-1-.5-2-1.3-2.7-.6-.5-1.4-.9-2.3-1v-2.6h-1.5v2.6c-.8.1-1.6.4-2.3 1-.8.7-1.3 1.7-1.3 2.7 0 1 .5 2 1.3 2.7.8.7 1.9 1.1 3 1.1.8 0 1.5.3 2 .7.5.4.8 1 .8 1.6s-.3 1.2-.8 1.6c-1.1.9-3 .9-4 0-.5-.4-.8-1-.8-1.6H8.6c0 1 .5 2 1.3 2.7.6.5 1.4.9 2.3 1v2.5h1.5v-2.5c.8-.1 1.6-.5 2.3-1 .8-.7 1.3-1.7 1.3-2.7 0-1-.5-2-1.3-2.7-.8-.7-1.9-1.1-3-1.1-.8 0-1.5-.3-2-.7-.5-.4-.8-1-.8-1.6 0-.6.3-1.2.8-1.6 1-.9 2.9-.9 3.9 0z"></path><path d="M63.5 37.2h-3.1v-12c0-1.5-1.2-2.6-2.6-2.6H42.2v-7.4l8.6-9c.7.7 1.6 1.2 2.7 1.2 2 0 3.7-1.7 3.7-3.7S55.5 0 53.5 0s-3.7 1.7-3.7 3.7c0 .4.1.8.2 1.1l-9.3 9.7v8h-4.5V7.3c1.7-.3 2.9-1.8 2.9-3.6 0-2-1.7-3.7-3.7-3.7s-3.7 1.7-3.7 3.7c0 1.8 1.3 3.3 2.9 3.6v15.3H27V7.3c1.7-.3 2.9-1.8 2.9-3.6 0-2-1.7-3.7-3.7-3.7s-3.7 1.7-3.7 3.7c0 1.8 1.3 3.3 2.9 3.6v15.3h-4.5v-8l-9.3-9.7c.1-.4.2-.7.2-1.1 0-2-1.7-3.7-3.7-3.7S4.4 1.8 4.4 3.8s1.7 3.7 3.7 3.7c1.1 0 2-.5 2.7-1.2l8.6 9v7.4H4.2c-1.5 0-2.6 1.2-2.6 2.6v37.2c0 1.5 1.2 2.6 2.6 2.6h53.6c1.5 0 2.6-1.2 2.6-2.6v-12h3.1V37.2zm-10-35.7c1.2 0 2.2 1 2.2 2.2 0 1.2-1 2.2-2.2 2.2-1.2 0-2.2-1-2.2-2.2 0-1.2 1-2.2 2.2-2.2zM33.3 3.7c0-1.2 1-2.2 2.2-2.2 1.2 0 2.2 1 2.2 2.2 0 1.2-1 2.2-2.2 2.2-1.2 0-2.2-1-2.2-2.2zm-9.1 0c0-1.2 1-2.2 2.2-2.2 1.2 0 2.2 1 2.2 2.2 0 1.2-1 2.2-2.2 2.2-1.2 0-2.2-1-2.2-2.2zM8.4 5.9c-1.2 0-2.2-1-2.2-2.2 0-1.2 1-2.2 2.2-2.2 1.2 0 2.2 1 2.2 2.2 0 1.2-1 2.2-2.2 2.2zm50.5 56.5c0 .6-.5 1.1-1.1 1.1H4.2c-.7 0-1.2-.5-1.2-1.1V25.2c0-.7.5-1.2 1.2-1.2h53.6c.6 0 1.1.5 1.1 1.1v12H46.1c-1.5 0-2.7 1.2-2.7 2.7v7.7c0 1.5 1.2 2.7 2.7 2.7h12.8v12.2zM62 48.9H46.1c-.7 0-1.2-.6-1.2-1.2V40c0-.7.6-1.2 1.2-1.2H62v10.1z"></path><path d="M50 47.1c1.9 0 3.4-1.5 3.4-3.4s-1.5-3.4-3.4-3.4-3.4 1.5-3.4 3.4c.1 1.9 1.6 3.4 3.4 3.4zm0-5.2c1 0 1.9.8 1.9 1.9 0 1-.8 1.9-1.9 1.9-1 0-1.9-.8-1.9-1.9.1-1.1.9-1.9 1.9-1.9zM14.7 57.9h1.5v1.5h-1.5zM6.8 57.9h1.5v1.5H6.8zM18.7 57.9h1.5v1.5h-1.5zM10.8 57.9h1.5v1.5h-1.5z"></path></svg>