<svg viewBox="0 0 65 65" xmlns="http://www.w3.org/2000/svg"><path d="M37.8 54.6c-.1-.1-.3-.3-.3-.6H36c0 .7.3 1.3.8 1.8.3.3.7.5 1.1.6v1.1h1.5v-1.1c.4-.1.8-.3 1.1-.6.5-.5.8-1.1.8-1.8s-.3-1.3-.8-1.8c-.5-.4-1.2-.7-1.9-.7-.3 0-.7-.1-.9-.3-.2-.2-.3-.4-.3-.6s.1-.5.3-.6c.5-.4 1.3-.4 1.8 0 .2.2.3.4.3.6h1.5c0-.7-.3-1.3-.8-1.8-.3-.3-.7-.5-1.1-.6v-1.1H38v1.1c-.4.1-.8.3-1.1.6-.5.5-.8 1.1-.8 1.8s.3 1.3.8 1.8c.5.4 1.2.7 1.9.7.3 0 .7.1.9.3.2.2.3.4.3.6 0 .2-.1.5-.3.6-.6.4-1.4.4-1.9 0z"></path><path d="M63.1 35.9H40.2c-.3-.6-.6-1.1-.9-1.7-1.9-3.2-4.2-6.2-6.5-9-2-2.6-4.1-5.2-5.9-8.1l-1.3.8c1.8 2.9 3.9 5.6 6 8.2 2.2 2.8 4.5 5.7 6.3 8.8.2.3.3.6.5.9H21.9v3.5h-4.1v20C11 58 3.8 53.6 3.4 45.2c-.3-6.7 3.4-11.4 7.3-16.5 2.6-3.3 5.2-6.7 6.7-10.8l-1.4-.5c-1.4 3.8-4 7.2-6.5 10.4-3.9 5-7.9 10.2-7.6 17.4.4 7.8 6.6 14 16 15.8v4h41.7v-4.1h3.5v-25zm-5 27.6H19.3V41H58v22.5zm3.5-4.1h-2.1V39.5H23.4v-2.1h38.2v22z"></path><path d="M27.6 59.5v.7h22.3v-.7c0-2.3 1.9-4.2 4.2-4.2h.7v-6.1h-.7c-2.3 0-4.2-1.9-4.2-4.2v-.7H27.6v.7c0 2.3-1.9 4.2-4.2 4.2h-.7v6.1h.7c2.3 0 4.2 1.9 4.2 4.2zm-3.5-8.9c2.6-.3 4.6-2.4 4.9-4.9h19.4c.3 2.6 2.4 4.6 4.9 4.9v3.2c-2.6.3-4.6 2.4-4.9 4.9H29c-.3-2.6-2.4-4.6-4.9-4.9v-3.2zM16.2 11.2l1.5.2c.2-1.6-1-3.5-2.1-5.3-.7-1.1-1.7-2.6-1.5-3.1 0 0 0-.1.1-.1.5-.2 1 .1 1.7.6.5.3.9.6 1.4.7 1.2.1 2-.6 2.6-1.1.6-.5.8-.7 1.2-.6.1.1.2.2.2.3.3.4.7.9 1.3 1.1 1.8.6 3.1-.4 4.2-1.2.7-.5 1.3-1 1.9-1 .5 0 .7.1.8.1 0 .3-.7 1.2-.9 1.5l-.3.3c-1.5 2.1-2.6 4.9-3 7.7l1.5.2c.4-2.6 1.3-5.2 2.7-7.1l.3-.4c.7-.9 1.6-2.1 1.1-3.1-.5-.9-1.8-.9-2.2-.9-1.1 0-2 .7-2.8 1.3-1.1.8-1.8 1.3-2.8 1l-.6-.6c-.3-.3-.5-.7-.9-.8-1.3-.4-2.1.4-2.7.9-.5.5-.9.8-1.4.8-.1 0-.5-.3-.7-.4-.8-.5-1.9-1.3-3.2-.7-.6.3-.8.7-.9 1-.4 1.2.6 2.7 1.7 4.4.9 1.5 1.9 3.3 1.8 4.3zM29.2 13.8H14.4c-.4 0-.7.3-.7.7 0 .4.3.7.7.7h14.8c.4 0 .7-.3.7-.7 0-.3-.3-.7-.7-.7z"></path></svg>