<svg viewBox="0 0 65 65" xmlns="http://www.w3.org/2000/svg"><path d="M42.7 18.3l1.5-.4c-.8-3.3-3.8-5.6-7.2-5.6-2 0-3.9.8-5.3 2.2l1.1 1.1c1.1-1.1 2.6-1.7 4.2-1.7 2.7-.1 5 1.8 5.7 4.4z"></path><path d="M53.1 18.4c-1.5 0-2.9.3-4.3.8-.6-6.2-5.8-11-12.1-11-5.5 0-10.3 3.7-11.7 9-1.6-1.1-3.5-1.8-5.5-1.8-4.9 0-8.9 3.8-9.3 8.6H9c-4.4 0-8.3 3.1-9.2 7.5l-.1.3c-.1.5-.1 1.1-.1 1.6 0 5.2 4.2 9.4 9.4 9.4h22.1v-1.5h-22c-4.3 0-7.9-3.5-7.9-7.9 0-.4 0-.9.1-1.3v-.3c.7-3.6 4-6.3 7.7-6.3h2.7v-.8c0-4.3 3.5-7.8 7.8-7.8 3.1 0 5.9 1.8 7.1 4.6l1.4-.6c-.4-1-1-1.8-1.7-2.6 1-5 5.3-8.6 10.4-8.6 5.9 0 10.6 4.8 10.6 10.6 0 1.1-.2 2.3-.5 3.3l1.4.5c.4-1.1.5-2.2.6-3.3 1.3-.6 2.8-.9 4.2-.9 5.9 0 10.6 4.8 10.6 10.6 0 5.9-4.8 10.6-10.6 10.6h-6.1v1.5H53c6.7 0 12.1-5.4 12.1-12.1.2-6.7-5.3-12.1-12-12.1z"></path><path d="M43.8 27.2h-9.4V47h-5l9.7 9.7 9.7-9.7h-5V27.2zm1.5 21.4l-6.1 6.1-6.2-6.1h3V28.7h6.4v19.8h2.9z"></path></svg>