<svg viewBox="0 0 65 65" xmlns="http://www.w3.org/2000/svg"><path d="M63.5 37.3h-2.3V10.7c0-1.8-1.4-3.2-3.2-3.2-1.8 0-3.2 1.4-3.2 3.2v26.6h-2.3c-1 0-1.8.8-1.8 1.8v2.6c0 1 .8 1.8 1.8 1.8h2.3v10.7c0 1.7 1.4 3.2 3.2 3.2 1.7 0 3.2-1.4 3.2-3.2V43.6h2.3c1 0 1.8-.8 1.8-1.8v-2.6c0-1.1-.9-1.9-1.8-1.9zm-7.2-26.6c0-.9.8-1.7 1.7-1.7.9 0 1.7.8 1.7 1.7v26.6h-3.4V10.7zm3.4 43.6c0 .9-.8 1.7-1.7 1.7-.9 0-1.7-.8-1.7-1.7V43.6h3.4v10.7zm4.1-12.5c0 .2-.1.3-.3.3h-11c-.2 0-.3-.1-.3-.3v-2.6c0-.2.1-.3.3-.3h10.9c.2 0 .3.1.3.3v2.6zM46.6 23.6h-2.3V10.7c0-1.8-1.4-3.2-3.2-3.2-1.7.1-3.1 1.5-3.1 3.2v12.9h-2.3c-1 0-1.8.8-1.8 1.8V28c0 1 .8 1.8 1.8 1.8H38v24.4c0 1.7 1.4 3.2 3.2 3.2 1.7 0 3.2-1.4 3.2-3.2V29.8h2.3c1 0 1.8-.8 1.8-1.8v-2.6c-.1-1-.9-1.8-1.9-1.8zm-7.1-12.9c0-.9.8-1.7 1.7-1.7.9 0 1.7.8 1.7 1.7v12.9h-3.4V10.7zm3.4 43.6c0 .9-.8 1.7-1.7 1.7-.9 0-1.7-.8-1.7-1.7V29.8h3.4v24.5zm4-26.3c0 .2-.1.3-.3.3H35.7c-.2 0-.3-.1-.3-.3v-2.6c0-.2.1-.3.3-.3h10.9c.2 0 .3.1.3.3V28zM29.8 31.3h-2.3V10.7c0-1.8-1.4-3.2-3.2-3.2-1.8 0-3.2 1.4-3.2 3.2v20.6h-2.3c-1 0-1.8.8-1.8 1.8v2.6c0 1 .8 1.8 1.8 1.8h2.3v16.7c0 1.7 1.4 3.2 3.2 3.2 1.7 0 3.2-1.4 3.2-3.2V37.5h2.3c1 0 1.8-.8 1.8-1.8v-2.6c0-1-.8-1.8-1.8-1.8zm-7.1-20.6c0-.9.8-1.7 1.7-1.7s1.6.8 1.6 1.7v20.6h-3.4V10.7zM26 54.3c0 .9-.8 1.7-1.7 1.7-.9 0-1.7-.8-1.7-1.7V37.5H26v16.8zm4.1-18.6c0 .2-.1.3-.3.3H18.9c-.2 0-.3-.1-.3-.3v-2.6c0-.2.1-.3.3-.3h10.9c.2 0 .3.1.3.3v2.6zM13 17.3h-2.3v-6.6c0-1.8-1.4-3.2-3.2-3.2-1.8 0-3.2 1.4-3.2 3.2v6.6H2c-1 0-1.8.8-1.8 1.8v2.6c0 1 .8 1.8 1.8 1.8h2.3v30.7c0 1.7 1.4 3.2 3.2 3.2 1.7 0 3.2-1.4 3.2-3.2V23.5H13c1 0 1.8-.8 1.8-1.8v-2.6c0-1-.8-1.8-1.8-1.8zm-7.2-6.6c0-.9.8-1.7 1.7-1.7s1.7.8 1.7 1.7v6.6H5.8v-6.6zm3.4 43.6c0 .9-.8 1.7-1.7 1.7-.9 0-1.7-.8-1.7-1.7V23.5h3.4v30.8zm4.1-32.6c0 .2-.1.3-.3.3H2c-.2 0-.3-.1-.3-.3v-2.6c0-.2.1-.3.3-.3h11c.2 0 .3.1.3.3v2.6z"></path></svg>