<svg width="232px" height="228px" viewBox="0 0 232 228" version="1.1" xmlns="http://www.w3.org/2000/svg" xmlns:xlink="http://www.w3.org/1999/xlink"><title>gtco-logo-new</title><g id="Page-1" stroke="none" stroke-width="1" fill="none" fill-rule="evenodd"><g id="gtco-logo-new" fill-rule="nonzero"><path d="M5.49,205.739991 C2.75,205.739991 0,204.85 0,197.85 C0,190.85 3.67,189.739991 6.46,189.739991 C7.68501692,189.738231 8.89478926,190.011626 10,190.54 L10,192.63 C8.87513581,192.163577 7.676724,191.89952 6.46,191.85 C4.67,191.85 2.53,192.739991 2.53,197.739991 C2.53,202.739991 4.15,203.65 5.62,203.65 C6.42112445,203.619433 7.21777511,203.515667 8,203.34 L8,198.12 L5.73,198.12 L5.62,196.07 L10.53,196.07 L10.53,204.87 C8.89747532,205.388235 7.20178751,205.680943 5.49,205.739991 Z" id="Path" fill="#3A474F"></path><path d="M21.21,205.52 L20.88,204.12 C19.9409196,205.061718 18.6958813,205.636351 17.37,205.74 C15.48,205.74 14.08,204.89 14.08,202.3 L14.08,193.74 L16.61,193.74 L16.61,201.9 C16.61,203.16 17.06,203.58 18.06,203.58 C19.0273804,203.481982 19.9535042,203.137698 20.75,202.58 L20.75,193.76 L23.28,193.76 L23.28,205.54 L21.21,205.52 Z" id="Path" fill="#3A474F"></path><path d="M33.07,205.52 L32.78,204.3 C32.0118839,205.22229 30.8702094,205.750911 29.67,205.74 C28.23,205.74 26.27,205.18 26.27,202.01 C26.27,198.84 28.87,198.23 30.74,198.23 L32.74,198.23 L32.74,197.14 C32.74,195.74 32,195.61 30.74,195.61 C29.5723413,195.675619 28.4170945,195.883832 27.3,196.23 L27.3,194.16 C28.5479746,193.757108 29.8487779,193.541431 31.16,193.52 C33.39,193.52 35.23,194.1 35.23,197.34 L35.23,205.52 L33.07,205.52 Z M32.72,199.67 L31.54,199.67 C29.74,199.67 28.81,200.11 28.81,201.84 C28.81,203.57 29.54,203.76 30.45,203.76 C31.2842527,203.698245 32.0781504,203.376489 32.72,202.84 L32.72,199.67 Z" id="Shape" fill="#3A474F"></path><path d="M43.07,196 C42.4388162,196.003715 41.8334187,196.250889 41.38,196.69 L41.38,205.53 L38.84,205.53 L38.84,193.74 L40.84,193.74 L41.18,195.12 C41.5925931,194.180893 42.5050213,193.559665 43.53,193.52 C43.9133839,193.525216 44.2952847,193.568767 44.67,193.65 L44.67,196.21 C44.1453878,196.084728 43.6091708,196.014349 43.07,196 Z" id="Path" fill="#3A474F"></path><path d="M52.46,205.52 L52.17,204.3 C51.4018839,205.22229 50.2602094,205.750911 49.06,205.74 C47.62,205.74 45.66,205.18 45.66,202.01 C45.66,198.84 48.26,198.23 50.13,198.23 L52.13,198.23 L52.13,197.14 C52.13,195.74 51.39,195.61 50.13,195.61 C48.9622115,195.674514 47.8068305,195.882751 46.69,196.23 L46.69,194.16 C47.9379746,193.757108 49.2387779,193.541431 50.55,193.52 C52.77,193.52 54.62,194.1 54.62,197.34 L54.62,205.52 L52.46,205.52 Z M52.11,199.67 L50.93,199.67 C49.13,199.67 48.2,200.11 48.2,201.84 C48.2,203.57 48.93,203.76 49.84,203.76 C50.6742527,203.698245 51.4681504,203.376489 52.11,202.84 L52.11,199.67 Z" id="Shape" fill="#3A474F"></path><path d="M65.41,205.52 L65.41,197.07 C65.41,195.85 64.72,195.7 63.79,195.7 C62.7193017,195.762891 61.6842931,196.107894 60.79,196.7 L60.79,205.5 L58.3,205.5 L58.3,193.74 L60.3,193.74 L60.75,195.1 C61.8301314,194.166803 63.1855433,193.611997 64.61,193.52 C66.61,193.52 67.92,194.34 67.92,197.03 L67.92,205.52 L65.41,205.52 Z" id="Path" fill="#3A474F"></path><path d="M74.65,205.74 C73,205.74 71.71,205.21 71.71,202.67 L71.71,195.54 L69.71,195.54 L69.71,193.74 L71.71,193.74 L71.87,191.1 L74.25,190.19 L74.25,193.74 L76.91,193.74 L76.65,195.54 L74.25,195.54 L74.25,202.7 C74.25,203.56 74.62,203.7 75.25,203.7 C75.9272141,203.62627 76.5965216,203.492409 77.25,203.3 L77.25,205.3 C76.4100974,205.575393 75.5337488,205.723698 74.65,205.74 L74.65,205.74 Z" id="Path" fill="#3A474F"></path><path d="M83.64,207.07 C82.91,209.52 81.51,209.96 80.11,209.96 C79.3335747,209.931611 78.5639815,209.803906 77.82,209.58 L77.82,207.58 C78.5075048,207.74175 79.2061049,207.852055 79.91,207.91 C80.73,207.91 81.22,207.31 81.55,205.91 L81.71,205.27 L77.24,193.69 L80.16,193.69 L82.78,202.58 L84.89,193.69 L87.66,193.69 L83.64,207.07 Z" id="Path" fill="#3A474F"></path><polygon id="Path" fill="#3A474F" points="103.23 192.23 99.75 192.23 99.75 205.52 97.21 205.52 97.21 192.23 93.44 192.23 93.44 190 103.52 190"></polygon><path d="M108.3,196 C107.668816,196.003715 107.063419,196.250889 106.61,196.69 L106.61,205.53 L104.08,205.53 L104.08,193.74 L106.08,193.74 L106.42,195.12 C106.832593,194.180893 107.745021,193.559665 108.77,193.52 C109.153384,193.525216 109.535285,193.568767 109.91,193.65 L109.91,196.21 C109.382126,196.084039 108.842522,196.013656 108.3,196 Z" id="Path" fill="#3A474F"></path><path d="M118.91,205.52 L118.58,204.12 C117.64092,205.061718 116.395881,205.636351 115.07,205.74 C113.18,205.74 111.78,204.89 111.78,202.3 L111.78,193.74 L114.31,193.74 L114.31,201.9 C114.31,203.16 114.76,203.58 115.76,203.58 C116.72738,203.481982 117.653504,203.137698 118.45,202.58 L118.45,193.76 L121,193.76 L121,205.54 L118.91,205.52 Z" id="Path" fill="#3A474F"></path><path d="M126.8,205.74 C125.781967,205.702241 124.773321,205.530771 123.8,205.23 L123.8,203.1 C124.725219,203.384513 125.676651,203.57547 126.64,203.67 C127.73,203.67 128.64,203.47 128.64,202.25 C128.64,201.25 127.97,201.01 127.08,200.65 L126.08,200.23 C124.62314,199.826268 123.61341,198.501764 123.61,196.99 C123.61,194.47 125.5,193.52 127.76,193.52 C128.745227,193.525514 129.722396,193.697955 130.65,194.03 L130.65,196.03 C129.761505,195.763757 128.845626,195.599368 127.92,195.54 C126.77,195.54 126.03,195.86 126.03,196.81 C126.03,197.76 126.83,198.03 127.59,198.32 L128.72,198.74 C130.206151,199.162585 131.202252,200.557126 131.12,202.1 C131.15,205.25 128.86,205.74 126.8,205.74 Z" id="Path" fill="#3A474F"></path><path d="M137,205.74 C135.35,205.74 134.07,205.21 134.07,202.67 L134.07,195.54 L132.07,195.54 L132.07,193.74 L134.07,193.74 L134.22,191.1 L136.6,190.19 L136.6,193.74 L139.26,193.74 L139,195.54 L136.6,195.54 L136.6,202.7 C136.6,203.56 136.98,203.7 137.6,203.7 C138.277214,203.62627 138.946522,203.492409 139.6,203.3 L139.6,205.3 C138.760097,205.575393 137.883749,205.723698 137,205.74 L137,205.74 Z" id="Path" fill="#3A474F"></path><path d="M151,205.52 L147.8,205.52 L147.8,190 L151.11,190 C154.8,190 157,190.57 157,194 C157.108681,195.684602 155.917183,197.175058 154.25,197.44 C155.8,197.71 157.45,198.44 157.45,201.08 C157.43,205.12 155,205.52 151,205.52 Z M151.14,191.9 L150.34,191.9 L150.34,196.59 L151.23,196.59 C153.47,196.59 154.47,196.23 154.47,194.1 C154.45,192.16 153.34,191.9 151.12,191.9 L151.14,191.9 Z M151.23,198.45 L150.34,198.45 L150.34,203.58 L151.27,203.58 C153.62,203.58 154.91,203.34 154.91,201.03 C154.91,198.72 153.56,198.45 151.21,198.45 L151.23,198.45 Z" id="Shape" fill="#3A474F"></path><path d="M166.22,205.52 L165.93,204.3 C165.161884,205.22229 164.020209,205.750911 162.82,205.74 C161.38,205.74 159.42,205.18 159.42,202.01 C159.42,198.84 162.02,198.23 163.89,198.23 L165.89,198.23 L165.89,197.14 C165.89,195.74 165.16,195.61 163.89,195.61 C162.722211,195.674514 161.566831,195.882751 160.45,196.23 L160.45,194.16 C161.697975,193.757108 162.998778,193.541431 164.31,193.52 C166.53,193.52 168.38,194.1 168.38,197.34 L168.38,205.52 L166.22,205.52 Z M165.86,199.67 L164.69,199.67 C162.89,199.67 161.95,200.11 161.95,201.84 C161.95,203.57 162.69,203.76 163.6,203.76 C164.432346,203.70296 165.224463,203.380505 165.86,202.84 L165.86,199.67 Z" id="Shape" fill="#3A474F"></path><path d="M179.17,205.52 L179.17,197.07 C179.17,195.85 178.48,195.7 177.55,195.7 C176.479302,195.762891 175.444293,196.107894 174.55,196.7 L174.55,205.5 L172.02,205.5 L172.02,193.74 L174.02,193.74 L174.47,195.1 C175.550131,194.166803 176.905543,193.611997 178.33,193.52 C180.33,193.52 181.64,194.34 181.64,197.03 L181.64,205.52 L179.17,205.52 Z" id="Path" fill="#3A474F"></path><path d="M185.36,205.52 L185.36,189.52 L187.89,189.52 L187.89,205.52 L185.36,205.52 Z M191.89,205.74 L188.27,198.74 L191.34,193.74 L194.34,193.74 L190.83,198.74 L194.78,205.56 L191.89,205.74 Z" id="Shape" fill="#3A474F"></path><polygon id="Path" fill="#3A474F" points="209.86 205.52 202.86 205.52 202.86 190 205.39 190 205.39 203.3 210.1 203.3"></polygon><path d="M215,205.74 C213.36,205.74 212.07,205.21 212.07,202.67 L212.07,195.54 L210.07,195.54 L210.07,193.74 L212.07,193.74 L212.23,191.1 L214.6,190.19 L214.6,193.74 L217.27,193.74 L217,195.54 L214.6,195.54 L214.6,202.7 C214.6,203.56 214.98,203.7 215.6,203.7 C216.277182,203.626061 216.946471,203.492204 217.6,203.3 L217.6,205.3 C216.760389,205.57657 215.883861,205.724906 215,205.74 Z" id="Path" fill="#3A474F"></path><path d="M226.61,205.52 L226.3,204.41 C225.465657,205.26834 224.316995,205.748755 223.12,205.740118 C221.37,205.740118 218.72,204.96 218.72,199.63 C218.72,194.3 222.08,193.52 223.57,193.52 C224.500736,193.488469 225.401467,193.851667 226.05,194.52 L226.05,189.52 L228.59,189.52 L228.59,205.52 L226.61,205.52 Z M226.05,196.25 C225.453402,195.80311 224.734867,195.548484 223.99,195.52 C222.65,195.52 221.25,195.92 221.25,199.63 C221.25,203.5 222.52,203.79 223.76,203.79 C224.60226,203.72138 225.402433,203.392925 226.05,202.85 L226.05,196.25 Z" id="Shape" fill="#3A474F"></path><path d="M191.94,226.28 L191.41,224.46 C191.271226,223.89362 190.992746,223.37104 190.6,222.94 L189.77,223.01 L189.77,226.28 L188.46,226.28 L188.46,218.28 L190.4,218.28 C192.04,218.28 193.32,218.61 193.32,220.56 C193.421362,221.562226 192.761527,222.483425 191.78,222.71 C192.183537,223.04142 192.476542,223.487903 192.62,223.99 L193.43,226.29 L191.94,226.28 Z M190.26,219.36 L189.77,219.36 L189.77,222.05 C191.27,221.97 192.01,221.74 192.01,220.56 C192.01,219.38 191.44,219.36 190.26,219.36 Z" id="Shape" fill="#3A474F"></path><path d="M197,226.39 C195.78,226.39 194.28,225.99 194.28,222.28 C194.28,218.57 196.07,218.16 197.12,218.16 C197.595412,218.160102 198.066694,218.248256 198.51,218.42 L198.51,219.49 C198.080045,219.346779 197.632614,219.262675 197.18,219.24 C196.38,219.24 195.59,219.67 195.59,222.24 C195.59,224.6 196.22,225.24 197.06,225.24 C197.553292,225.215752 198.041042,225.12493 198.51,224.97 L198.51,226.07 C198.028565,226.261886 197.517885,226.37011 197,226.39 Z" id="Path" fill="#3A474F"></path><polygon id="Path" fill="#3A474F" points="203.52 226.28 203.52 221.2 202.03 221.82 202.03 220.7 203.81 219.87 204.81 219.87 204.81 226.28"></polygon><path d="M209.46,227.25 C208.564285,227.640837 207.597269,227.841731 206.62,227.840011 L206.62,226.79 C207.353989,226.791853 208.081158,226.649138 208.76,226.37 C209.35984,226.115968 209.733059,225.509989 209.69,224.86 C209.69,223.86 209.25,223.67 208.56,223.67 C208.080656,223.686684 207.615929,223.839281 207.22,224.11 L206.54,223.9 L206.66,219.9 L210.76,219.9 L210.64,221.06 L207.87,221.06 L207.79,222.93 C208.145714,222.747933 208.540427,222.655261 208.94,222.66 C209.51754,222.642332 210.074499,222.875306 210.46745,223.298926 C210.860401,223.722547 211.05094,224.295412 210.99,224.87 C211.012725,225.901014 210.407397,226.842636 209.46,227.25 L209.46,227.25 Z" id="Path" fill="#3A474F"></path><path d="M214.15,224.62 L213.42,225.15 L216.08,225.15 L215.97,226.28 L212,226.28 L212,225.1 L213.24,224.03 C214.11,223.27 214.86,222.77 214.86,221.83 C214.86,221.12 214.46,220.83 213.72,220.83 C213.147104,220.859125 212.581346,220.970257 212.04,221.16 L212.04,220.1 C212.61432,219.875623 213.22356,219.753775 213.84,219.74 C215.16,219.74 216.17,220.28 216.17,221.74 C216.17,223.2 215.13,223.91 214.15,224.62 Z" id="Path" fill="#3A474F"></path><path d="M220,227.32 C219.063363,227.670053 218.069828,227.842989 217.07,227.83 L217.07,226.83 C217.806186,226.834796 218.53852,226.723427 219.24,226.5 C219.82724,226.294135 220.204058,225.720718 220.16,225.1 C220.16,224.17 219.45,223.95 218.65,223.95 L217.85,223.95 L217.85,222.95 L218.66,222.95 C219.33,222.95 219.98,222.7 219.98,221.78 C219.98,221.08 219.51,220.78 218.83,220.78 C218.234728,220.80017 217.643943,220.890801 217.07,221.05 L217.07,220.05 C217.658681,219.877353 218.266848,219.779911 218.88,219.76 C220.06,219.76 221.28,220.12 221.28,221.67 C221.290511,222.506393 220.701113,223.23051 219.88,223.39 C220.7882,223.438433 221.492945,224.200799 221.47,225.11 C221.509756,226.087123 220.91654,226.978965 220,227.32 L220,227.32 Z" id="Path" fill="#3A474F"></path><path d="M224.65,224.62 L223.92,225.15 L226.59,225.15 L226.47,226.28 L222.53,226.28 L222.53,225.1 L223.76,224.03 C224.63,223.27 225.39,222.77 225.39,221.83 C225.39,221.12 224.99,220.83 224.24,220.83 C223.667254,220.860341 223.101667,220.971439 222.56,221.16 L222.56,220.1 C223.13758,219.874875 223.750234,219.753022 224.37,219.74 C225.68,219.74 226.69,220.28 226.69,221.74 C226.69,223.2 225.64,223.91 224.65,224.62 Z" id="Path" fill="#3A474F"></path><polygon id="Path" fill="#3A474F" points="228.86 226.28 228.86 221.2 227.38 221.82 227.38 220.7 229.15 219.87 230.15 219.87 230.15 226.28"></polygon><rect id="Rectangle" fill="#E04403" x="59.23" y="0" width="171.86" height="171.87"></rect><rect id="Rectangle" fill="#FFFFFF" x="157.61" y="24.43" width="42.97" height="42.97"></rect><path d="M103.72,139.13 C96.72,139.13 89.26,137.18 89.26,120.18 C89.26,103.18 98.26,100.18 105.83,100.18 C108.909422,100.137875 111.955316,100.823115 114.72,102.18 L114.72,108.24 C111.864604,107.180139 108.869603,106.543406 105.83,106.35 C101.99,106.35 96.83,108.41 96.83,119.72 C96.83,131.72 100.83,133.16 103.6,133.16 C105.328425,133.111872 107.050394,132.927972 108.75,132.61 L108.75,121.1 L103.6,121.1 L103.06,115.3 L116.33,115.3 L116.33,137.18 C112.220973,138.337472 107.986717,138.992254 103.72,139.13 Z" id="Path" fill="#FFFFFF"></path><polygon id="Path" fill="#FFFFFF" points="145.8 107.18 137.46 107.18 137.46 138.59 129.87 138.59 129.87 107.18 120.67 107.18 120.67 100.68 146.67 100.68"></polygon><path d="M162,139.13 C155.66,139.13 148.57,137.13 148.57,119.63 C148.57,102.13 157.5,100.14 162.7,100.14 C165.102523,100.090199 167.488307,100.550314 169.7,101.49 L169.7,107.61 C167.568258,106.869849 165.343265,106.432256 163.09,106.31 C159.41,106.31 156.16,108.53 156.16,119.63 C156.16,129.55 158.49,132.9 162.55,132.9 C164.987785,132.81323 167.398406,132.358077 169.7,131.55 L169.7,137.67 C167.268975,138.707313 164.642009,139.205413 162,139.13 Z" id="Path" fill="#FFFFFF"></path><path d="M187.28,139.13 C181.43,139.13 173.74,137.94 173.74,119.63 C173.74,101.32 181.92,100.14 187.28,100.14 C192.64,100.14 200.82,101.44 200.82,119.63 C200.82,138.1 193,139.13 187.28,139.13 Z M187.28,105.55 C183.49,105.55 181.28,108.04 181.28,119.63 C181.28,131.39 184.04,133.72 187.28,133.72 C190.52,133.72 193.23,131.55 193.23,119.63 C193.23,108.26 191,105.55 187.28,105.55 Z" id="Shape" fill="#FFFFFF"></path></g></g></svg>