<svg viewBox="0 0 65 65" xmlns="http://www.w3.org/2000/svg"><path d="M4.9 41.7h1.5v1.5H4.9zM4.9 44.7h1.5v1.5H4.9zM33.9 32.3h1.5v1.5h-1.5zM51.1 32.3h1.5v1.5h-1.5zM59.7 32.3h1.5v1.5h-1.5zM55.4 32.3h1.5v1.5h-1.5zM38.2 32.3h1.5v1.5h-1.5zM46.8 32.3h1.5v1.5h-1.5zM42.5 32.3H44v1.5h-1.5zM26.2 24.9h11.2v-7.2H26.2v7.2zm1.5-5.7h8.2v4.2h-8.2v-4.2z"></path><path d="M62.1 13H24.6c-1.5 0-2.8 1.2-2.8 2.8v13.7h-4.1c-2 .1-3.8 1.1-4.9 2.7-.6.9-1.7 1.5-2.8 1.5H9l-.2-.2c-.5-.5-1.1-.7-1.8-.7-1.6.1-3.2.2-4.7.2v1.5c1.6 0 3.2-.1 4.8-.2.3 0 .5.1.7.2.1.1.2.2.2.4v12.7c0 .1-.1.3-.2.4-.2.2-.4.2-.7.2-2.3-.2-4.7-.2-7-.2v1.5c2.3 0 4.6.1 6.9.2h.2c.6 0 1.1-.2 1.5-.5.4 0 1.6.1 2.3.5l.6.3c.9.6 2 1.2 4.1 1.7 1 .2 3.3.3 5.6.3 3.3 0 6.7-.1 6.9-.1 1.6 0 2.8-1.3 2.8-2.8 0-.5-.1-1-.4-1.4 1.4-.2 2.4-1.4 2.4-2.8 0-.8-.3-1.5-.8-2 .7-.5 1.1-1.3 1.1-2.2 0-.5-.1-.9-.4-1.3h29.2c1.5 0 2.8-1.2 2.8-2.8V15.8c0-1.5-1.3-2.8-2.8-2.8zM16 50.2c-1.9-.4-2.8-1-3.7-1.5-.2-.1-.4-.2-.6-.4-.7-.4-1.6-.6-2.3-.6V35.1h.6c1.6 0 3.1-.8 4-2.1.9-1.3 2.4-2.1 4-2.1H30.2c-.3 1.6-1.8 2.9-3.3 2.9h-7.2v.7c0 .2-.1 5.5-5.3 6.5l.3 1.5c5.1-.9 6.2-5.4 6.4-7.2h.8v1.2c0 .8.4 1.6 1 2.1-.5.5-.8 1.2-.8 2s.4 1.6.9 2.1c-.6.5-.9 1.3-.9 2.1s.4 1.6.9 2.1c-.6.5-.9 1.3-.9 2.1 0 .5.2 1 .4 1.5-2.8 0-5.6 0-6.5-.3zm12.1.1l-3.3.1c-.7 0-1.3-.7-1.3-1.4s.6-1.3 1.3-1.3h3.3c.7 0 1.3.6 1.3 1.3.1.7-.5 1.3-1.3 1.3zm2.1-4.1h-5.3c-.7 0-1.3-.6-1.3-1.3 0-.7.6-1.3 1.3-1.3h5.3c.7 0 1.3.6 1.3 1.3.1.7-.5 1.3-1.3 1.3zm1.6-5.5c0 .7-.6 1.3-1.3 1.3h-5.6c-.7 0-1.3-.6-1.3-1.3 0-.7.6-1.3 1.3-1.3h5.6c.7-.1 1.3.5 1.3 1.3zm31.6-4.1c0 .7-.6 1.3-1.3 1.3H24.6c-.7 0-1.3-.6-1.3-1.3v-1.2h3.5c2.7 0 4.9-2.4 4.9-5.1v-.8h-8.5V15.8c0-.7.6-1.3 1.3-1.3H62c.7 0 1.3.6 1.3 1.3v20.8z"></path><path d="M50.8 18.6h9.7v1.5h-9.7zM47 22.5h13.5V24H47z"></path></svg>