<svg xmlns="http://www.w3.org/2000/svg" xmlns:xlink="http://www.w3.org/1999/xlink" viewBox="0,0,256,256" width="24px" height="24px" fill-rule="nonzero"><g fill="none" fill-rule="nonzero" stroke="none" stroke-width="1" stroke-linecap="butt" stroke-linejoin="miter" stroke-miterlimit="10" stroke-dasharray="" stroke-dashoffset="0" font-family="none" font-weight="none" font-size="none" text-anchor="none" style="mix-blend-mode: normal"><g transform="scale(0.5,0.5)"><path d="M7.9,256c0,-137 111.1,-248.1 248.1,-248.1c137,0 248.1,111.1 248.1,248.1c0,137 -111.1,248.1 -248.1,248.1c-137,0 -248.1,-111.1 -248.1,-248.1z" fill="#de4726"></path><path d="M412.7,313.2c0,18.1 -14.6,32.7 -32.7,32.7h-248c-18.1,0 -32.7,-14.6 -32.7,-32.7v-144.4c0,-18.1 14.6,-32.7 32.7,-32.7h248c18.1,0 32.7,14.6 32.7,32.7z" fill="#dff1ed"></path><path d="M337,389.9c-2.6,2.6 -6.7,2.6 -9.3,0l-31.3,-44.3c-2.6,-2.6 -2.6,-6.7 0,-9.3h72c2.6,2.6 2.6,6.7 0,9.3z" fill="#dff1ed"></path><g fill="#b7cac4"><path d="M364.9,191.6c0,6.6 -5.3,11.9 -11.9,11.9h-194.8c-6.6,0 -11.9,-5.3 -11.9,-11.9v0c0,-6.6 5.3,-11.9 11.9,-11.9h194.9c6.5,0.1 11.8,5.4 11.8,11.9zM364.9,239.2c0,6.6 -5.3,11.9 -11.9,11.9h-194.8c-6.6,0 -11.9,-5.3 -11.9,-11.9v0c0,-6.6 5.3,-11.9 11.9,-11.9h194.9c6.5,0 11.8,5.3 11.8,11.9zM364.9,286.7c0,6.6 -5.3,11.9 -11.9,11.9h-194.8c-6.6,0 -11.9,-5.3 -11.9,-11.9v0c0,-6.6 5.3,-11.9 11.9,-11.9h194.9c6.5,0 11.8,5.3 11.8,11.9z"></path></g></g></g></svg>