<?xml version="1.0" encoding="UTF-8" standalone="no"?>
<svg xmlns="http://www.w3.org/2000/svg" xmlns:xlink="http://www.w3.org/1999/xlink" width="100%" height="100%" viewBox="0 0 253 154" xml:space="preserve" style="fill-rule:evenodd;clip-rule:evenodd;stroke-linejoin:round;stroke-miterlimit:1.41421;">
  <rect id="Artboard30" x="0.34" y="0.593" width="252" height="153" style="fill:none;"></rect>
  <clipPath id="_clip1">
    <rect id="Artboard301" x="0.34" y="0.593" width="252" height="153"></rect>
  </clipPath>
  <g clip-path="url(#_clip1)">
    <rect x="0.34" y="0.593" width="252" height="153" style="fill:url(#_Linear2);"></rect>
    <path d="M147.737,82.318c-1.19,0.702 -2.624,1.038 -4.302,1.007l-2.243,0l0,-9.749l2.243,0c1.708,0 3.142,0.366 4.302,1.098c0.55,0.366 0.992,0.87 1.328,1.511c0.305,0.64 0.457,1.434 0.457,2.38c-0.03,1.8 -0.625,3.051 -1.785,3.753m-21.209,2.155c-0.453,-0.184 -0.905,-0.369 -1.357,-0.557c-0.116,-0.048 -0.132,-0.176 -0.036,-0.258c0.025,-0.021 0.051,-0.039 0.076,-0.059c0.108,-0.083 0.215,-0.166 0.326,-0.252c-0.016,-0.021 -0.028,-0.036 -0.041,-0.051c-0.609,-0.68 -1.36,-1.111 -2.257,-1.281c-0.538,-0.103 -1.076,-0.098 -1.611,0.027c-0.035,0.008 -0.134,0.022 -0.184,-0.02c-0.1,-0.114 -0.11,-0.163 -0.064,-0.285c0.046,-0.091 0.125,-0.12 0.142,-0.123c0.257,-0.04 0.515,-0.091 0.774,-0.102c1.212,-0.051 2.275,0.332 3.183,1.138c0.146,0.13 0.278,0.276 0.421,0.419c0.123,-0.096 0.25,-0.194 0.378,-0.292c0.122,-0.092 0.244,-0.043 0.265,0.109c0.065,0.472 0.13,0.945 0.194,1.417c0.018,0.134 -0.085,0.22 -0.209,0.17m-0.858,1.914c-0.179,0.443 -0.358,0.885 -0.538,1.327c-0.05,0.124 -0.182,0.148 -0.265,0.043c-0.302,-0.385 -0.602,-0.771 -0.9,-1.158c-0.077,-0.1 -0.027,-0.219 0.097,-0.242c0.031,-0.006 0.064,-0.009 0.096,-0.014c0.134,-0.018 0.269,-0.037 0.408,-0.056c-0.005,-0.026 -0.007,-0.045 -0.011,-0.064c-0.19,-0.893 -0.627,-1.641 -1.32,-2.235c-0.416,-0.357 -0.885,-0.62 -1.412,-0.778c-0.034,-0.01 -0.127,-0.048 -0.148,-0.109c-0.031,-0.149 -0.015,-0.195 0.085,-0.279c0.086,-0.056 0.169,-0.041 0.184,-0.036c0.243,0.093 0.493,0.177 0.723,0.297c1.077,0.559 1.809,1.42 2.195,2.571c0.062,0.185 0.103,0.377 0.157,0.572c0.154,-0.021 0.313,-0.043 0.473,-0.064c0.151,-0.02 0.233,0.083 0.176,0.225m-2.273,2.459c-0.363,0.31 -0.727,0.618 -1.091,0.926c-0.103,0.087 -0.23,0.047 -0.255,-0.084c-0.089,-0.481 -0.176,-0.963 -0.261,-1.444c-0.021,-0.124 0.078,-0.206 0.199,-0.169c0.031,0.009 0.061,0.021 0.091,0.032c0.128,0.046 0.256,0.092 0.387,0.139c0.009,-0.025 0.016,-0.043 0.021,-0.062c0.246,-0.879 0.205,-1.744 -0.133,-2.592c-0.203,-0.508 -0.496,-0.959 -0.89,-1.343c-0.025,-0.025 -0.09,-0.102 -0.081,-0.166c0.042,-0.146 0.078,-0.18 0.205,-0.207c0.102,-0.01 0.169,0.041 0.18,0.053c0.172,0.196 0.354,0.385 0.503,0.598c0.694,0.995 0.944,2.097 0.752,3.295c-0.031,0.193 -0.083,0.383 -0.127,0.58c0.147,0.053 0.298,0.107 0.449,0.163c0.144,0.053 0.168,0.182 0.051,0.281m-3.516,0.096c-0.129,0.146 -0.275,0.278 -0.418,0.421c0.095,0.123 0.194,0.25 0.291,0.378c0.093,0.122 0.043,0.244 -0.108,0.265c-0.472,0.065 -0.945,0.13 -1.418,0.194c-0.133,0.018 -0.219,-0.085 -0.169,-0.208c0.183,-0.454 0.369,-0.906 0.556,-1.358c0.048,-0.116 0.177,-0.132 0.258,-0.036c0.021,0.025 0.04,0.051 0.06,0.077c0.083,0.107 0.166,0.214 0.252,0.325c0.02,-0.016 0.036,-0.028 0.05,-0.041c0.68,-0.609 1.111,-1.36 1.282,-2.257c0.102,-0.538 0.097,-1.076 -0.028,-1.611c-0.008,-0.035 -0.021,-0.134 0.021,-0.184c0.113,-0.1 0.162,-0.11 0.284,-0.064c0.092,0.047 0.12,0.125 0.123,0.142c0.04,0.257 0.092,0.515 0.103,0.774c0.05,1.212 -0.332,2.275 -1.139,3.183m-3.511,0.015c0.02,0.151 -0.084,0.233 -0.226,0.176c-0.442,-0.178 -0.884,-0.358 -1.326,-0.537c-0.125,-0.051 -0.148,-0.183 -0.043,-0.265c0.384,-0.303 0.77,-0.603 1.158,-0.901c0.1,-0.077 0.219,-0.027 0.242,0.097c0.006,0.032 0.008,0.064 0.013,0.096c0.019,0.134 0.037,0.269 0.056,0.408c0.027,-0.004 0.046,-0.007 0.065,-0.011c0.893,-0.19 1.64,-0.627 2.235,-1.32c0.356,-0.416 0.619,-0.885 0.777,-1.411c0.01,-0.035 0.048,-0.128 0.109,-0.149c0.149,-0.031 0.196,-0.015 0.279,0.085c0.056,0.086 0.042,0.169 0.036,0.184c-0.093,0.243 -0.176,0.493 -0.296,0.723c-0.56,1.077 -1.42,1.809 -2.571,2.195c-0.185,0.062 -0.377,0.104 -0.572,0.157c0.021,0.154 0.043,0.313 0.064,0.473m-2.241,-2.597c-0.053,0.147 -0.107,0.298 -0.163,0.449c-0.052,0.144 -0.182,0.168 -0.281,0.051c-0.309,-0.363 -0.618,-0.726 -0.926,-1.091c-0.087,-0.103 -0.046,-0.23 0.085,-0.255c0.481,-0.089 0.962,-0.176 1.444,-0.26c0.124,-0.022 0.206,0.077 0.169,0.198c-0.01,0.031 -0.022,0.061 -0.033,0.091c-0.046,0.128 -0.092,0.256 -0.139,0.387c0.025,0.009 0.043,0.016 0.062,0.021c0.879,0.246 1.744,0.205 2.592,-0.133c0.509,-0.203 0.96,-0.497 1.343,-0.89c0.026,-0.026 0.102,-0.09 0.167,-0.081c0.146,0.042 0.179,0.078 0.207,0.205c0.01,0.102 -0.041,0.169 -0.054,0.18c-0.195,0.172 -0.385,0.354 -0.597,0.503c-0.995,0.694 -2.097,0.944 -3.296,0.752c-0.193,-0.031 -0.383,-0.083 -0.58,-0.127m-1.604,-3.251c-0.065,-0.473 -0.13,-0.945 -0.193,-1.418c-0.018,-0.134 0.084,-0.219 0.208,-0.169c0.453,0.183 0.906,0.369 1.357,0.556c0.117,0.048 0.132,0.177 0.037,0.258c-0.025,0.021 -0.052,0.04 -0.077,0.06c-0.108,0.083 -0.215,0.166 -0.326,0.252c0.017,0.02 0.028,0.036 0.041,0.05c0.609,0.68 1.361,1.111 2.258,1.282c0.538,0.102 1.075,0.097 1.611,-0.028c0.035,-0.008 0.134,-0.021 0.183,0.021c0.101,0.114 0.11,0.162 0.065,0.284c-0.047,0.092 -0.126,0.121 -0.142,0.123c-0.257,0.04 -0.515,0.092 -0.774,0.103c-1.213,0.05 -2.276,-0.332 -3.184,-1.139c-0.145,-0.129 -0.277,-0.275 -0.42,-0.418c-0.124,0.095 -0.251,0.194 -0.379,0.291c-0.122,0.093 -0.244,0.043 -0.265,-0.108m0.874,-3.502c0.178,-0.442 0.357,-0.884 0.537,-1.326c0.051,-0.125 0.182,-0.148 0.265,-0.043c0.302,0.384 0.602,0.77 0.901,1.158c0.077,0.1 0.026,0.219 -0.098,0.242c-0.031,0.006 -0.063,0.009 -0.096,0.013c-0.134,0.019 -0.269,0.037 -0.407,0.057c0.004,0.026 0.006,0.045 0.01,0.064c0.19,0.893 0.627,1.64 1.321,2.235c0.415,0.356 0.884,0.619 1.411,0.777c0.034,0.011 0.127,0.048 0.149,0.109c0.031,0.149 0.014,0.196 -0.085,0.279c-0.087,0.056 -0.169,0.042 -0.185,0.036c-0.243,-0.093 -0.492,-0.176 -0.722,-0.296c-1.077,-0.56 -1.809,-1.42 -2.195,-2.571c-0.062,-0.185 -0.104,-0.377 -0.157,-0.572c-0.155,0.021 -0.314,0.043 -0.473,0.064c-0.152,0.02 -0.233,-0.084 -0.176,-0.226m2.272,-2.459c0.363,-0.309 0.727,-0.618 1.091,-0.926c0.103,-0.087 0.231,-0.046 0.255,0.085c0.089,0.481 0.176,0.962 0.261,1.444c0.022,0.124 -0.078,0.206 -0.198,0.169c-0.031,-0.01 -0.061,-0.022 -0.092,-0.033c-0.127,-0.046 -0.255,-0.092 -0.387,-0.139c-0.009,0.025 -0.016,0.043 -0.021,0.062c-0.246,0.879 -0.205,1.744 0.133,2.592c0.204,0.509 0.497,0.96 0.89,1.344c0.026,0.025 0.09,0.101 0.081,0.166c-0.041,0.146 -0.077,0.18 -0.204,0.207c-0.103,0.01 -0.17,-0.041 -0.18,-0.054c-0.173,-0.195 -0.355,-0.384 -0.503,-0.597c-0.695,-0.995 -0.944,-2.097 -0.752,-3.296c0.031,-0.193 0.083,-0.383 0.126,-0.58c-0.146,-0.053 -0.298,-0.107 -0.449,-0.162c-0.143,-0.053 -0.167,-0.183 -0.051,-0.282m3.516,-0.095c0.13,-0.146 0.276,-0.278 0.419,-0.421c-0.096,-0.124 -0.194,-0.251 -0.292,-0.379c-0.092,-0.121 -0.043,-0.243 0.109,-0.264c0.472,-0.066 0.945,-0.131 1.417,-0.194c0.134,-0.018 0.22,0.084 0.17,0.208c-0.184,0.453 -0.369,0.906 -0.557,1.358c-0.048,0.116 -0.176,0.131 -0.258,0.035c-0.021,-0.024 -0.039,-0.051 -0.059,-0.076c-0.083,-0.108 -0.167,-0.215 -0.252,-0.326c-0.021,0.017 -0.036,0.028 -0.051,0.041c-0.68,0.609 -1.111,1.361 -1.282,2.258c-0.102,0.537 -0.097,1.075 0.028,1.611c0.008,0.035 0.022,0.134 -0.02,0.183c-0.114,0.101 -0.163,0.11 -0.285,0.065c-0.091,-0.047 -0.12,-0.126 -0.123,-0.142c-0.04,-0.257 -0.092,-0.515 -0.102,-0.774c-0.051,-1.213 0.332,-2.276 1.138,-3.183m3.512,-0.015c-0.02,-0.152 0.083,-0.233 0.225,-0.176c0.443,0.178 0.885,0.357 1.326,0.537c0.125,0.051 0.149,0.183 0.044,0.265c-0.385,0.302 -0.771,0.602 -1.158,0.901c-0.1,0.077 -0.219,0.026 -0.242,-0.097c-0.006,-0.032 -0.009,-0.064 -0.014,-0.096c-0.018,-0.135 -0.037,-0.269 -0.056,-0.408c-0.026,0.004 -0.046,0.006 -0.065,0.01c-0.892,0.19 -1.64,0.628 -2.234,1.321c-0.356,0.415 -0.62,0.884 -0.778,1.411c-0.01,0.034 -0.048,0.127 -0.109,0.149c-0.148,0.031 -0.195,0.014 -0.279,-0.085c-0.056,-0.087 -0.041,-0.169 -0.036,-0.185c0.093,-0.243 0.177,-0.492 0.296,-0.722c0.56,-1.077 1.42,-1.809 2.572,-2.195c0.185,-0.062 0.377,-0.104 0.572,-0.157c-0.021,-0.155 -0.044,-0.314 -0.064,-0.473m2.24,2.596c0.053,-0.146 0.107,-0.298 0.163,-0.449c0.053,-0.143 0.182,-0.167 0.281,-0.051c0.31,0.363 0.618,0.727 0.926,1.091c0.087,0.103 0.047,0.231 -0.084,0.255c-0.481,0.089 -0.963,0.176 -1.444,0.261c-0.124,0.022 -0.206,-0.078 -0.169,-0.198c0.009,-0.031 0.021,-0.061 0.032,-0.092c0.046,-0.127 0.092,-0.255 0.139,-0.387c-0.025,-0.008 -0.043,-0.016 -0.062,-0.021c-0.879,-0.246 -1.744,-0.205 -2.592,0.134c-0.508,0.203 -0.959,0.496 -1.343,0.889c-0.026,0.026 -0.102,0.09 -0.166,0.081c-0.146,-0.041 -0.18,-0.077 -0.207,-0.204c-0.01,-0.103 0.041,-0.17 0.053,-0.18c0.195,-0.173 0.385,-0.355 0.598,-0.503c0.995,-0.695 2.097,-0.944 3.296,-0.752c0.192,0.031 0.382,0.083 0.579,0.126m50.352,8.222c-0.427,-0.946 -0.961,-1.754 -1.602,-2.426c-0.641,-0.701 -1.389,-1.296 -2.242,-1.785c-0.824,-0.458 -1.679,-0.854 -2.564,-1.19c-0.885,-0.366 -1.724,-0.716 -2.517,-1.053c-0.824,-0.304 -1.587,-0.64 -2.289,-1.006c-0.64,-0.367 -1.175,-0.779 -1.602,-1.236c-0.427,-0.458 -0.64,-1.022 -0.64,-1.694c0,-0.884 0.167,-1.617 0.503,-2.197c0.336,-0.61 0.747,-1.068 1.236,-1.373c0.518,-0.335 1.068,-0.564 1.648,-0.686c0.549,-0.122 1.098,-0.184 1.647,-0.184c2.289,0.031 4.455,0.489 6.5,1.374l0.595,-5.264c-2.35,-0.762 -4.898,-1.144 -7.644,-1.144c-2.899,0 -5.447,0.717 -7.643,2.151c-1.509,1.006 -2.533,2.449 -3.074,4.33c-0.638,-1.811 -1.779,-3.148 -3.426,-4.01c-2.594,-1.311 -5.691,-1.952 -9.291,-1.922l-8.102,0l0,29.381l-11.533,-29.381l-7.232,0l-11.304,29.01l0,-15.371l-12.908,0l0,5.035l6.774,0l0,8.331c-1.068,0.305 -2.471,0.457 -4.211,0.457c-3.417,-0.03 -6.072,-1.128 -7.964,-3.295c-1.922,-2.075 -2.883,-4.775 -2.883,-8.102c0,-3.356 1.007,-6.117 3.021,-8.284c1.983,-2.166 4.836,-3.265 8.559,-3.296c2.807,0 5.553,0.565 8.238,1.694l0.412,-5.401c-2.654,-0.854 -5.782,-1.297 -9.383,-1.327c-11.473,0.122 -17.316,5.812 -17.53,17.072c0.03,5.401 1.678,9.399 4.944,11.992c3.142,2.655 7.338,3.982 12.586,3.982c3.205,-0.057 6.383,-0.528 9.536,-1.413l-0.336,0.864l6.636,0l2.792,-7.324l12.953,0l2.747,7.324l12.494,0l0,-12.129l2.701,0c3.539,0.03 6.468,-0.748 8.788,-2.335c1.617,-1.086 2.678,-2.685 3.182,-4.796c0.415,0.883 0.925,1.643 1.532,2.279c0.701,0.641 1.465,1.19 2.288,1.648c0.794,0.488 1.632,0.915 2.518,1.281c1.8,0.672 3.402,1.373 4.806,2.106c0.64,0.366 1.174,0.823 1.602,1.373c0.366,0.549 0.549,1.205 0.549,1.968c-0.031,1.404 -0.657,2.441 -1.877,3.112c-1.22,0.672 -2.487,1.007 -3.799,1.007c-2.563,-0.03 -4.974,-0.686 -7.231,-1.968l-0.596,5.767c1.526,0.366 2.869,0.657 4.028,0.87c1.129,0.244 2.518,0.366 4.166,0.366c3.356,0 6.179,-0.747 8.467,-2.243c2.289,-1.495 3.463,-3.966 3.524,-7.415c0,-1.373 -0.183,-2.547 -0.549,-3.524" style="fill:#dd4a0a;fill-rule:nonzero;"></path>
  </g>
  <defs>
    <linearGradient id="_Linear2" x1="0" y1="0" x2="1" y2="0" gradientUnits="userSpaceOnUse" gradientTransform="matrix(-0.380547,201.5,-201.5,-0.380547,126.34,-47.907)">
      <stop offset="0" style="stop-color:#f7f8f8;stop-opacity:1"></stop>
      <stop offset="1" style="stop-color:#fff;stop-opacity:1"></stop>
    </linearGradient>
  </defs>
</svg>
