<svg xmlns="http://www.w3.org/2000/svg" width="15" height="15" viewBox="0 0 15 15"><path fill-rule="evenodd" d="M10.41 14.962c1.21 0 2.3-.384 3.07-1.152.77-.768 1.209-1.866 1.209-3.128V4.646c0-1.262-.389-2.305-1.149-3.073C12.77.805 11.73.365 10.46.365H4.43C1.85.365.15 2.121.15 4.646v6.036c0 1.262.38 2.36 1.2 3.128.77.768 1.87 1.152 3.08 1.152h5.98zm0-13.279c.93 0 1.651.274 2.19.823.5.549.77 1.262.77 2.14v6.036c0 .878-.27 1.646-.82 2.14-.489.494-1.26.769-2.14.769H4.43c-.88 0-1.59-.275-2.14-.769-.55-.549-.83-1.317-.83-2.195V4.591c0-.878.28-1.647.77-2.14.5-.494 1.26-.768 2.14-.768h6.04zm-3.02 9.658c-2.079 0-3.73-1.701-3.73-3.732 0-2.086 1.7-3.731 3.73-3.731 2.03 0 3.79 1.645 3.79 3.731 0 2.085-1.7 3.732-3.79 3.732zm0-6.147a2.423 2.423 0 0 1 2.421 2.415 2.423 2.423 0 0 1-2.421 2.414 2.414 2.414 0 0 1 0-4.829zm3.9-.603c-.5 0-.88-.384-.88-.878s.38-.878.88-.878c.49 0 .87.384.87.878s-.38.878-.87.878z"></path></svg>