<svg xmlns="http://www.w3.org/2000/svg" width="602.4" height="546.7" viewBox="0 0 602.4 546.7"><path d="M515.3 196.4c-50 0-87.1 17.6-87.1 39.8v270.6c0 23.2 37.1 39.8 87.1 39.8 50 0 87.1-17.6 87.1-39.8V236.3c0-23.2-37-39.9-87.1-39.9zM330 303c-3.7-8.3-7.4-16.7-13-25-15.7-27.8-35.2-51.9-54.7-76-17.6-21.3-35.2-44.5-50-67.6l-12 7.4c14.8 25 33.4 47.3 51 69.5 18.5 24.1 38 48.2 53.7 75.1 3.7 5.6 6.5 12 9.3 18.5-44.5 1.9-76 18.5-76 39.8v145.5c-57.5 16.7-126 5.6-172.3-25.9-23.2-15.7-50-44.5-52.8-91.7-2.8-55.6 28.7-96.4 61.2-139 21.3-27.8 44.5-56.5 56.5-90.8l-13-4.6c-12 32.4-33.4 60.2-54.7 88C31.7 267-2.6 310.5.2 371.7c1.9 41.7 22.2 76.9 58.4 101.9 34.3 24.1 78.8 36.1 124.2 36.1 19.5 0 38-2.8 56.5-7.4v4.6c0 23.2 37.1 39.8 87.1 39.8 50 0 87.1-17.6 87.1-39.8V343.8c-1-22.3-36.2-39.9-83.5-40.8zm185.3 230.7c-45.4 0-73.2-15.8-73.2-25.9v-30.6c14.8 11.1 41.7 17.6 73.2 17.6s58.4-7.4 73.2-17.6v30.6c0 10.2-27.8 25.9-73.2 25.9zm-189.9 0c-45.4 0-73.2-15.8-73.2-25.9v-32.4c14.8 11.1 41.7 17.6 73.2 17.6s58.4-7.4 73.2-17.6v32.4c0 10.2-27.8 25.9-73.2 25.9zm189.9-52.8c-45.4 0-73.2-15.8-73.2-26v-32.4c14.8 11.1 41.7 17.6 73.2 17.6s58.4-7.4 73.2-17.6V454c0 11.1-27.8 26.9-73.2 26.9zM325.4 479c-45.4 0-73.2-15.8-73.2-25.9v-32.4c14.8 11.1 41.7 17.6 73.2 17.6s58.4-7.4 73.2-17.6v32.4c0 10.2-27.8 25.9-73.2 25.9zm189.9-52.8c-45.4 0-73.2-15.8-73.2-26v-32.4c14.8 11.1 41.7 17.6 73.2 17.6s58.4-7.4 73.2-17.6v32.4c0 11.2-27.8 26-73.2 26zm-189.9-1.8c-45.4 0-73.2-15.8-73.2-25.9V366c14.8 11.1 41.7 17.6 73.2 17.6s58.4-7.4 73.2-17.6v32.4c0 11.1-27.8 26-73.2 26zm189.9-52.8c-45.4 0-73.2-15.8-73.2-26v-32.4c14.8 11.1 41.7 17.6 73.2 17.6s58.4-7.4 73.2-17.6v32.4c0 11.1-27.8 26-73.2 26zm-189.9-1.9c-45.4 0-73.2-15.7-73.2-25.9 0-11.1 27.8-25.9 73.2-25.9s73.2 15.7 73.2 25.9-27.8 25.9-73.2 25.9zm189.9-51.9c-45.4 0-73.2-15.8-73.2-26v-32.4c14.8 11.1 41.7 17.6 73.2 17.6s58.4-7.4 73.2-17.6v32.4c0 10.3-27.8 26-73.2 26zm0-107.5c45.4 0 73.2 15.8 73.2 26 0 11.1-27.8 25.9-73.2 25.9s-73.2-15.8-73.2-25.9c0-11.1 27.8-26 73.2-26zm-290-99.1c3.7 0 6.5 2.8 6.5 6.5s-2.8 7.4-7.4 6.5H112.3c-3.7 0-6.5-2.8-6.5-6.5s2.8-6.5 6.5-6.5h113zM227.4 0c3.9 0 14.7.1 18.4 8.3 3.7 9.3-3.7 18.5-9.3 26.9l-1.9 2.8c-11.1 15.8-19.5 37.1-22.2 59.3l-13.9-1.9c3.7-24.1 12-48.2 25-65.8l1.9-2.8c1.9-2.8 6.5-9.3 7.4-12-.9-.9-1.8-.9-5.6-.9-4.6 0-10.2 3.7-15.7 8.3-9.3 6.5-21.3 15.7-36.1 10.2-5.6-.9-8.3-5.6-11.1-9.3-.4-.4-.7-.9-.9-1.3l-.1-.2c-.2-.4-.4-.9-.9-1.3-2.8-.9-4.6 0-9.3 4.6-4.6 4.6-12 11.1-22.2 10.2-3.7 0-8.3-2.8-12-5.6-5.6-3.7-10.2-6.5-13.9-4.6l-.9.9c-.9 3.7 7.4 16.7 13 25.9 9.3 15.7 19.5 31.5 17.6 45.4l-13.9-1.9c1.9-9.3-7.4-24.1-16.7-36.1-9.3-14.8-16.7-27.8-13.9-38 .9-2.8 2.8-6.5 8.3-9.3 11.1-5.6 21.3.9 27.8 5.6 1.9 1.9 4.6 3.7 5.6 3.7 4.6 0 7.4-1.8 12-6.5 5.6-4.6 13-11.1 24.1-7.4 2.8 1.9 5.6 4.6 7.4 7.4.9.9 3.7 4.6 4.6 4.6 8.3 2.8 13.9-.9 23.2-8.3 7.3-5.3 14.7-10.9 24-10.9h.2z"></path></svg>