<svg xmlns="http://www.w3.org/2000/svg" width="17" height="17" viewBox="0 0 17 17"><path fill-rule="evenodd" d="M16.02 15.058V2.07c0-.598-.5-1.086-1.11-1.086H2.07C1.45.984.95 1.471.95 2.07v12.988c0 .599.5 1.086 1.12 1.086h12.84a1.1 1.1 0 0 0 1.11-1.086zM3.25 13.674h2.275V6.83H3.25v6.844zm5.811-5.852V7.8c.299-.468.839-1.13 2.049-1.13 1.49 0 2.62.977 2.62 3.08v3.924h-2.28v-3.662c0-.92-.33-1.549-1.15-1.549-.63 0-1 .426-1.17.834-.06.146-.069.349-.069.555v3.822H6.78s.031-6.202 0-6.844h2.281v.97c-.011.007-.011.015-.021.022h.021zM4.38 5.896h-.01c-.77 0-1.26-.528-1.26-1.184 0-.671.51-1.184 1.29-1.184s1.26.513 1.27 1.184c0 .656-.49 1.184-1.29 1.184z"></path></svg>