<svg xmlns="http://www.w3.org/2000/svg" width="63" height="62.7" viewBox="0 0 63 62.7"><style>.st0{fill-rule:evenodd;clip-rule:evenodd}</style><path class="st0" d="M47.5 6.6c1.5 0 2.7 1.2 2.7 2.7 0 1.4-1.2 2.7-2.7 2.7-1.5 0-2.7-1.2-2.7-2.7.1-1.5 1.2-2.7 2.7-2.7zm0 6.8c2.2 0 4.2-1.8 4.2-4.2C51.7 7 49.8 5 47.5 5c-2.2 0-4.2 1.8-4.2 4.2.1 2.3 2 4.2 4.2 4.2zm2.9.6c2.9 0 5.2 2.3 5.2 5.2v.8c1.8-2 2.9-4.6 2.9-7.5 0-6.1-4.9-11-11-11s-11 4.9-11 11c0 2.9 1.2 5.5 2.9 7.5v-.7c0-2.9 2.3-5.2 5.2-5.2h.6l2.2 4.2h.4L50 14h.4zm-1.8 5.6h-2.1l-2.2-4.2c-1.9.2-3.4 1.8-3.4 3.8v2c1.8 1.4 4.2 2.3 6.7 2.3s4.8-.9 6.7-2.3v-2c0-1.9-1.5-3.6-3.4-3.8l-2.3 4.2zM10.5 30.5c-1.2 0-2.1-1-2.1-2.1s1-2.1 2.1-2.1 2.1 1 2.1 2.1c0 1.3-1 2.1-2.1 2.1zm0-5.6c-1.9 0-3.6 1.6-3.6 3.6 0 1.9 1.5 3.6 3.6 3.6 2 0 3.6-1.6 3.6-3.6s-1.7-3.6-3.6-3.6zm2.4 7.4c2.4 0 4.5 2 4.5 4.5v.2c1.4-1.6 2.2-3.6 2.1-5.8 0-4.9-4.1-9-9-9s-9 4.1-9 9c0 2.2.8 4.3 2.1 5.8v-.2c0-2.4 2-4.5 4.5-4.5h.6l1.8 3.5h.2l1.8-3.5h.4zm-1.5 4.9H9.5l-1.8-3.5c-1.5.2-2.6 1.4-2.6 3v1.6c1.6 1.2 3.4 1.8 5.4 1.8 2 0 3.9-.7 5.4-1.8v-1.6c0-1.6-1.2-2.8-2.6-3l-1.9 3.5zm36.1 9.5c-1.9 0-3.6-1.6-3.6-3.6 0-1.9 1.6-3.6 3.6-3.6 1.9 0 3.6 1.6 3.6 3.6 0 2.1-1.6 3.6-3.6 3.6zm0-8.5c-2.7 0-4.9 2.2-4.9 4.9s2.2 4.9 4.9 4.9 4.9-2.2 4.9-4.9c.1-2.7-2.1-4.9-4.9-4.9zm3.7 11.1c3.5 0 6.4 2.9 6.4 6.4V57c2.4-2.6 4-6 4.1-9.8 0-7.8-6.3-14.1-14.1-14.1s-14.1 6.3-14.1 14.1c0 3.8 1.6 7.3 4 9.8v-1.4c0-3.5 2.9-6.4 6.4-6.4h.4l2.9 5.3h.8l2.8-5.2h.4zm-2.4 6.6h-2.5l-2.8-5.2C41 50.9 39 53 39 55.6v2.6c2.3 1.8 5.3 2.9 8.6 3 3.3 0 6.2-1.2 8.6-3v-2.6c0-2.6-2-4.7-4.6-4.9l-2.8 5.2zm-1.3-24.2c-6.2 0-11.4 3.6-14 8.8l-13.3-5.8c.4-1.2.7-2.4.7-3.7 0-1.1-.2-2.2-.5-3.2L36.9 19c2.2 3.5 6.1 5.8 10.6 5.8 6.9 0 12.5-5.6 12.5-12.5S54.4 0 47.5 0 35 5.6 35 12.5c0 1.9.5 3.8 1.3 5.3L20 26.6c-1.6-3.5-5.3-5.9-9.4-5.9C4.7 20.7 0 25.3 0 31.1c0 5.8 4.7 10.5 10.5 10.5 4 0 7.5-2.2 9.2-5.5L33 41.9c-.6 1.7-1 3.4-1 5.3 0 8.5 7 15.5 15.5 15.5S63 55.7 63 47.2s-7-15.5-15.5-15.5z"></path></svg>