<svg xmlns="http://www.w3.org/2000/svg" width="47" height="33.5" viewBox="0 0 47 33.5"><style>.st0{fill-rule:evenodd;clip-rule:evenodd;fill:#434a52}</style><path class="st0" d="M41.2 5.4c.6 0 1.1-.5 1.1-1.1v-.2c0-.6-.5-1.1-1.1-1.1h-.1c-.6 0-1.1.5-1.1 1.1v.1c0 .6.5 1.1 1.1 1.1h.1zM31 11.9c.6 0 1.1-.5 1.1-1.1v-.1c0-.6-.5-1.1-1.1-1.1h-.1c-.6 0-1.1.5-1.1 1.1v.1c0 .6.5 1.1 1.1 1.1h.1zm-14.9 1.6c-3.5 0-6.2-2.8-6.2-6.2s2.8-6.2 6.2-6.2c3.5 0 6.2 2.8 6.2 6.2s-2.8 6.2-6.2 6.2zm14.8-5c1 0 1.9.7 2.1 1.7h13.9v1.1H33c-.2.9-1.1 1.7-2.1 1.7h-.1c-1 0-1.9-.7-2.1-1.7h-6.4c-1.3 2-3.5 3.4-6.2 3.4-4.1 0-7.3-3.3-7.3-7.3S12 0 16.1 0c2.7 0 5 1.4 6.3 3.6h16.5C39.1 2.7 40 2 41 2h.1c1 0 1.9.7 2.2 1.7H47v1.1h-3.7c-.2.9-1.1 1.7-2.1 1.7h-.1c-1.1 0-1.9-.7-2.2-1.7h-16c.4.8.5 1.7.5 2.6 0 1-.2 2-.6 2.8h5.9c.2-.9 1.1-1.7 2.1-1.7h.1zm8 9.9c.6 0 1.1-.5 1.1-1.1v-.1c0-.6-.5-1.1-1.1-1.1h-.1c-.6 0-1.1.5-1.1 1.1v.1c0 .6.5 1.1 1.1 1.1h.1zm-3.1 6.5c.6 0 1.1-.5 1.1-1.1v-.1c0-.6-.5-1.1-1.1-1.1h-.1c-.6 0-1.1.5-1.1 1.1v.1c0 .6.5 1.1 1.1 1.1h.1zM31 32.4c-.2-4.5-.7-9-.7-9.1 0-1-.3-2.1-.9-3.2-.6-1-1.6-1.8-2.8-2.2l-4.3-1.5-4.6 8.6h-3.3l-4.6-8.6L5.6 18c-1.2.4-2.2 1.2-2.8 2.2-.4.8-.9 2-.9 3.2 0 .1-.5 4.6-.7 9.1h4.6l.4-5.6 1 .1-.4 5.5h18.4l-.3-5.5 1.1-.1.4 5.5H31zM38.9 15c1 0 1.9.7 2 1.6h5.9v1.1h-5.9c-.2.9-1.1 1.7-2.1 1.7h-.1c-1 0-1.9-.7-2.1-1.7h-8.1c.7.5 1.3 1.2 1.7 2 .7 1.2 1.1 2.4 1.1 3.5h2.2c.2-.9 1.1-1.7 2.1-1.7h.1c1.1 0 1.9.7 2.1 1.6h9v1.1h-9c-.2.9-1.1 1.7-2.1 1.7h-.1c-1 0-1.9-.7-2.1-1.7h-2.1c.1 1.7.5 5.2.7 8.8v.6H0V33c.1-4.8.7-9.6.7-9.7 0-1.2.4-2.4 1.1-3.6.7-1.2 1.9-2.2 3.3-2.8l5.1-1.8L15 24h2l4.8-8.9 4.4 1.6h10.4c.2-.9 1.1-1.7 2.1-1.7h.2z"></path></svg>