<svg xmlns="http://www.w3.org/2000/svg" width="601.5" height="602.4" viewBox="0 0 601.5 602.4"><path d="M137.1 246.8L281.6 181v67L431 181v67l149.4-67v364.9h21.1v56.5H0v-56.5h22.6l34.8-427.2h69l10.7 128.1zM21.2 564.1h-3v19.2h564.1v-19.2h-1.9v1H21.1l.1-1zm141.6-18.2h398.4V209.7l-149.4 67.1v-67.1l-149.4 67.1v-67.1l-123.6 56.5 24 279.7zm-43.1-291.1L110.1 138H75.7L41.2 546h102.5l-22.3-272-1.7-19.2zm416.7 207.8h-99.6V364h99.6v98.6zm-125.5 0h-99.6V364h99.6v98.6zm-124.5 0h-99.6V364h99.6v98.6zm169.5-18.2h61.3v-62.3h-61.3v62.3zm-64.2-62.3h-61.3v62.3h61.3v-62.3zM205 444.4h61.3v-62.3H205v62.3zm-94.9-340c-15.3 0-27.8-12.5-27.8-27.8s12.5-27.8 27.8-27.8 27.8 12.5 27.8 27.8-12.4 27.8-27.8 27.8zm0-37.4c-4.8 0-9.6 3.8-9.6 9.6 0 4.8 3.8 9.6 9.6 9.6 4.8 0 9.6-3.8 9.6-9.6s-4.8-9.6-9.6-9.6zm78.6-3.8c-17.2 0-31.6-14.4-31.6-31.6S171.4 0 188.7 0s31.6 14.4 31.6 31.6-14.4 31.6-31.6 31.6zm0-44c-6.7 0-12.5 5.7-12.5 12.5s5.7 12.5 12.5 12.5c6.7 0 12.5-5.7 12.5-12.5s-4.9-12.5-12.5-12.5z"></path></svg>