<svg xmlns="http://www.w3.org/2000/svg" width="43.9" height="44.5" viewBox="0 0 43.9 44.5"><path d="M12.3 41.1l-.1-.5-11 2.9h-.1v-.2L4 32.5l-.1-.2C2 29.3 1 25.7 1 22c0-5.8 2.3-11 6.1-14.8S16.2 1 22 1s11 2.3 14.8 6.1c3.8 3.8 6.1 9 6.1 14.8s-2.3 11-6.1 14.8c-3.8 3.8-9 6.1-14.8 6.1-3.4 0-6.6-.8-9.5-2.3l-.2-.1-.2.1.2.6-.3.4c3 1.5 6.4 2.4 9.9 2.4 6.1 0 11.6-2.5 15.5-6.4 4-4 6.4-9.5 6.4-15.5 0-6.1-2.5-11.6-6.4-15.5C33.5 2.5 28 0 22 0S10.4 2.5 6.5 6.4c-4 4-6.4 9.5-6.4 15.5 0 4 1.1 7.7 2.9 10.9l.5-.2-.5-.1L.1 43.1c-.1.1-.1.2-.1.3v.3c.1.2.2.5.4.6.2.1.4.2.7.2h.3l11-2.9-.1-.5-.3.4.3-.4z"></path><path d="M34.9 15.4l-.3-.5-6.9 3.6v-2.7c0-.2-.1-.3-.2-.4-.1-.1-.3-.2-.4-.2H10c-.2 0-.3.1-.4.2-.1.1-.2.3-.2.4v13.7c0 .2.1.3.2.4s.3.2.4.2h17c.2 0 .3-.1.4-.2.1-.1.2-.3.2-.4v-2.6l7 3.7h.3c.2 0 .3-.1.4-.2.1-.1.2-.3.2-.4V15.1c-.1-.1-.1-.2-.2-.2s-.2-.1-.3-.1-.2 0-.3.1l.2.5.3.5-.3-.5v.6c.1 0 .2 0 .2-.1l-.2-.5v.6-.6l-.2.5c.1.1.2.1.3.1l-.1-.6-.2.5.2-.5-.4.3c.1.1.1.2.2.2l.2-.5-.4.3.4-.3-.5.2.5-.2-.5.1v14.6h.5l-.3-.3c-.1.1-.2.2-.2.3h.5l-.3-.3.3.3v-.5c-.1 0-.3.1-.3.2l.3.3v-.5.6l.1-.5-.1.5.3-.5-8.6-4.5v4.4h.4l-.3-.3c-.1.1-.2.2-.2.3h.5l-.3-.3.3.3v-.5c-.1 0-.3.1-.3.2l.3.3v-.5H10v.5l.3-.3c-.1-.1-.2-.2-.3-.2v.5l.3-.3-.3.3h.5c0-.1-.1-.3-.2-.3l-.3.3h.5V15.9H10l.3.3c.1-.1.2-.2.2-.3H10l.3.3-.3-.3v.5c.1 0 .3-.1.3-.2l-.3-.3v.5h17v-.5l-.3.3c.1.1.2.2.3.2v-.5l-.3.3.3-.3h-.5c0 .1.1.3.2.3l.3-.3h-.5v4.5l8.6-4.5-.2-.5z"></path></svg>