<svg xmlns="http://www.w3.org/2000/svg" width="17" height="14" viewBox="0 0 17 14"><path d="M15.3 3.778c.011.146.011.292.011.441 0 4.495-3.421 9.678-9.681 9.678-1.92 0-3.71-.562-5.21-1.527.26.031.53.047.81.047 1.59 0 3.06-.544 4.22-1.456a3.393 3.393 0 0 1-3.17-2.363c.2.04.42.06.64.06.31 0 .61-.04.891-.119A3.4 3.4 0 0 1 1.08 5.204V5.16c.46.255.99.408 1.54.426a3.405 3.405 0 0 1-1.05-4.542 9.672 9.672 0 0 0 7.01 3.554 3.934 3.934 0 0 1-.08-.776 3.4 3.4 0 0 1 5.88-2.327c.78-.152 1.5-.436 2.16-.826a3.365 3.365 0 0 1-1.5 1.882A6.834 6.834 0 0 0 17 2.016a6.88 6.88 0 0 1-1.7 1.762"></path></svg>